# xmcd CD database file
#
# Track frame offsets:
#	150
#	12644
#	40314
#	57790
#
# Disc length: 1025 seconds
#
# Revision: 0
# Processed by: cddbd v1.5.1PL0 Copyright (c) Steve Scherf et al.
# Submitted via: CDex 1.51
#
DISCID=2e03ff04
DTITLE=BLAST - Downer of the World
DYEAR=2003
DGENRE=Rock
TTITLE0=極限思想
TTITLE1=天照の啓示
TTITLE2=dearest
TTITLE3=わからない
EXTD=YEAR: 2003/08/30
EXTT0=
EXTT1=
EXTT2=
EXTT3=
PLAYORDER=
